<?xml version="1.0" standalone="no"?>
<!DOCTYPE svg PUBLIC "-//W3C//DTD SVG 20010904//EN"
 "http://www.w3.org/TR/2001/REC-SVG-20010904/DTD/svg10.dtd">
<svg version="1.0" xmlns="http://www.w3.org/2000/svg"
 width="64.000000pt" height="64.000000pt" viewBox="0 0 64.000000 64.000000"
 preserveAspectRatio="xMidYMid meet">

<g transform="translate(0.000000,64.000000) scale(0.100000,-0.100000)"
fill="#000000" stroke="none">
<path d="M198 530 c-126 -39 -174 -167 -97 -255 26 -29 28 -35 18 -64 -6 -18
-9 -34 -7 -36 2 -3 20 6 38 19 45 30 115 25 143 -11 29 -36 71 -53 132 -53 32
0 69 -7 87 -16 l31 -16 -7 35 c-4 24 -2 38 8 46 8 7 20 28 26 47 21 64 -26
143 -97 161 -25 6 -38 19 -55 53 -36 70 -143 115 -220 90z m141 -30 c33 -16
81 -72 81 -93 0 -4 -19 -11 -42 -17 -73 -20 -130 -96 -113 -151 7 -20 5 -21
-43 -14 -32 4 -52 3 -57 -4 -12 -20 -33 -12 -28 9 4 13 -2 30 -14 43 -48 52
-57 118 -23 172 43 69 160 96 239 55z m151 -135 c71 -37 90 -111 45 -171 -15
-20 -22 -39 -18 -49 5 -15 3 -16 -16 -6 -12 7 -31 9 -42 6 -43 -14 -108 5
-144 41 -57 57 -45 130 29 175 37 23 106 25 146 4z"/>
<path d="M100 364 c0 -16 33 -73 46 -78 19 -7 18 1 -6 31 -11 14 -20 32 -20
39 0 8 -4 14 -10 14 -5 0 -10 -3 -10 -6z"/>
</g>
</svg>
